<svg class="icon" viewBox="0 0 1024 1024" xmlns="http://www.w3.org/2000/svg" width="200" height="200"><path d="M518.32 95.6c55.92 0 110.08 10.96 161.04 32.56a413.224 413.224 0 01131.6 88.8 414.536 414.536 0 0188.8 131.6c21.6 50.96 32.56 105.12 32.56 161.04 0 55.92-10.96 110.08-32.56 161.04a413.224 413.224 0 01-88.8 131.6 414.536 414.536 0 01-131.6 88.8c-50.96 21.6-105.12 32.56-161.04 32.56-55.92 0-110.08-10.96-161.04-32.56a413.224 413.224 0 01-131.6-88.8 414.536 414.536 0 01-88.8-131.6c-21.6-50.96-32.56-105.12-32.56-161.04 0-55.92 10.96-110.08 32.56-161.04a413.224 413.224 0 0188.8-131.6 414.536 414.536 0 01131.6-88.8c50.96-21.6 105.12-32.56 161.04-32.56m0-67.76c-266 0-481.68 215.68-481.68 481.68S252.32 991.2 518.32 991.2 1000 775.52 1000 509.52c0-266.08-215.6-481.68-481.68-481.68zm0 625.92c-18.72 0-33.92-15.12-33.92-33.92V269.12c0-18.72 15.12-33.92 33.92-33.92 18.72 0 33.92 15.12 33.92 33.92v350.8a33.968 33.968 0 01-33.92 33.84zm-38.4 96.72a38.408 38.408 0 0076.8 0 38.408 38.408 0 00-76.8 0zm0 0"/></svg>