<svg class="icon" viewBox="0 0 1024 1024" xmlns="http://www.w3.org/2000/svg" width="200" height="200"><path d="M407.368 123.686c16.275 2.789 32.715 4.854 48.798 8.491 60.918 13.786 117.403 36.944 165.83 77.813 45.685 38.554 79.48 84.609 94.866 143.049 1.16 4.402 1.813 8.937 2.956 14.707-96.43-7.358-180.794 17.78-248.077 87.387-68.478 70.84-91.055 154.841-64.402 253.685-20.464 0-40.316 1.712-59.752-.408-27.848-3.036-55.336-9.262-83.106-13.22-6.666-.95-14.645.027-20.653 2.942-35.413 17.164-70.415 35.173-105.586 52.836-1.44.725-3.195.827-6.057 1.525 0-2.989-.604-5.471.09-7.517 9.466-27.904 18.872-55.837 28.856-83.56 3.08-8.549 2.802-13.372-5.796-19.546-53.267-38.234-94.908-85.902-115.562-149.48-4.15-12.78-7.247-25.898-10.83-38.86v-74.153c1.078-1.613 2.86-3.117 3.13-4.855 7.608-48.925 28.112-92.15 60.07-129.434 53.105-61.955 121.743-97.344 200.989-113.42 14.17-2.876 28.425-5.334 42.643-7.981l71.593-.001zM541.31 313.767c.212-22.732-17.233-40.233-40.703-40.836-23.479-.604-48.464 20.264-48.742 40.706-.27 19.695 24.028 41.556 46.576 41.906 24.367.38 42.644-17.431 42.869-41.776zm-238.92 1.801c-1.361-25.524-14.19-37.346-35.807-41.939-19.998-4.248-47.56 12.521-52.132 31.05-1.673 6.78-2.256 15.467.586 21.409 8.759 18.323 24.808 27.625 44.92 28.684 21.873 1.155 42.636-18.501 42.434-39.204z"/><path d="M900.855 913.778c-29.52-16.615-58.966-33.357-88.674-49.628-2.76-1.513-7.355-.68-10.802.21-40.551 10.456-81.532 18.003-123.552 13.497-109.176-11.721-197.336-57.308-244.86-161.3-36.888-80.719-17.978-173.937 44.86-240.791 52.099-55.433 117.37-83.548 192.255-91.548 90.883-9.716 171.962 14.005 241.92 72.576 51.488 43.103 81.983 98.445 85.645 166.286 2.193 40.6-10.528 77.914-31.988 112.232-20.532 32.838-46.692 60.63-77.432 83.972-8.102 6.15-9.649 12.052-6.655 21.41 7.74 24.215 14.618 48.706 21.839 73.085l-2.556-.001zM613.65 586.435c21.44.077 40.719-14.833 41.062-31.756.366-18.091-19.232-34.554-41.28-34.669-17.468-.09-34.634 16.538-34.734 33.653-.1 17.3 16.327 32.707 34.952 32.772zm189.533.015c21.066-.07 39.21-15.734 38.92-33.6-.288-17.929-19.49-33.143-41.404-32.8-16.76.26-33.58 16.878-33.745 33.338-.175 17.618 16.818 33.127 36.23 33.062z"/></svg>